# xmcd
#
# Track frame offsets:
#	150
#	6637
#	14898
#	27765
#	40421
#	57020
#	70776
#	86015
#	96527
#	111997
#	120603
#	128869
#	143971
#	155220
#	165866
#	180497
#	196503
#	214256
#	232493
#	259516
#	268640
#
# Disc length: 3778 seconds
#
# Revision: 1
# Processed by: cddbd v1.5.2PL0 Copyright (c) Steve Scherf et al.
# Submitted via: audiograbber 1.83.01
#
DISCID=340ec015
DTITLE=Shanty-koret Capstan-Esbjerg - Muntre Shanty-og Somandsmelodier CD.nr 3
DYEAR=2009
DGENRE=Shanty
TTITLE0=Captain' kendismelodi
TTITLE1=Sally Brown , Peder Hjuier
TTITLE2=16 tons ,sven Larsen
TTITLE3=Sailing, med Peder Hjuier pae 2 vers
TTITLE4=strike the bell , Aage Lykke
TTITLE5=Sacramento , Sven Lassen
TTITLE6=esbjerg-valsen
TTITLE7=The banana boat song , rytmegruppe
TTITLE8=Soemandes alfabert
TTITLE9=one more day , Joergen Christensen
TTITLE10=Cockies and Musseis , Age lykke
TTITLE11=Blow the Wind , Sven Lassen
TTITLE12=Shenandoah , Peter Duhn
TTITLE13=Can't you dance , Egon Jensen
TTITLE14=Rio Grande , Peder Hjuler
TTITLE15=Anna Lovinda , Arne Lauridsen
TTITLE16=Seemann , Egon Jensen
TTITLE17=Pay me , Morgens Pedersen and Rytmegruppe
TTITLE18=La Paloma , Peder Hjuler
TTITLE19=Ancors Aweigh
TTITLE20=The  leaving of Liverpool
EXTD=
EXTT0=
EXTT1=
EXTT2=
EXTT3=
EXTT4=
EXTT5=
EXTT6=
EXTT7=
EXTT8=
EXTT9=
EXTT10=
EXTT11=
EXTT12=
EXTT13=
EXTT14=
EXTT15=
EXTT16=
EXTT17=
EXTT18=
EXTT19=
EXTT20=
PLAYORDER=
